<?xml version="1.0" standalone="no"?>
<!DOCTYPE svg PUBLIC "-//W3C//DTD SVG 20010904//EN"
 "http://www.w3.org/TR/2001/REC-SVG-20010904/DTD/svg10.dtd">
<svg version="1.0" xmlns="http://www.w3.org/2000/svg"
 width="289.000000pt" height="289.000000pt" viewBox="0 0 289.000000 289.000000"
 preserveAspectRatio="xMidYMid meet">
<metadata>
Created by potrace 1.14, written by Peter Selinger 2001-2017
</metadata>
<g transform="translate(0.000000,289.000000) scale(0.100000,-0.100000)"
fill="#000000" stroke="none">
<path d="M2531 2850 c-53 -13 -113 -61 -140 -113 l-24 -48 -29 35 c-15 19 -56
48 -90 65 -52 26 -73 31 -134 31 -100 0 -169 -27 -225 -88 -24 -26 -51 -58
-59 -71 l-16 -23 -31 51 c-33 52 -100 107 -156 128 -18 6 -66 12 -107 12 -99
1 -162 -28 -238 -107 l-55 -59 -42 43 c-153 153 -432 150 -662 -7 -117 -80
-244 -226 -400 -459 -128 -193 -123 -179 -123 -321 l0 -124 60 114 c113 216
311 493 438 612 121 114 246 171 382 173 90 1 146 -18 220 -74 34 -27 67 -51
73 -53 6 -2 -15 -37 -47 -78 -64 -80 -117 -182 -137 -259 l-13 -49 -95 6 c-59
3 -118 1 -153 -6 -183 -39 -349 -205 -389 -389 -9 -42 -15 -53 -35 -58 -35 -9
-66 -51 -54 -74 9 -17 21 -18 122 -13 91 4 135 1 229 -16 63 -13 120 -26 127
-30 8 -5 5 -23 -13 -66 l-24 -60 -73 4 c-40 1 -76 5 -80 7 -3 2 -50 -1 -104
-6 -172 -18 -299 -101 -367 -239 -30 -63 -32 -71 -32 -181 0 -100 4 -126 28
-195 49 -140 144 -283 272 -410 66 -66 71 -73 63 -100 -5 -17 -12 -90 -15
-162 l-6 -133 37 0 36 0 0 109 c0 60 3 122 6 139 l6 30 97 -66 c53 -36 146
-89 206 -118 61 -29 124 -62 140 -73 26 -18 45 -21 140 -21 l110 0 -144 70
-144 70 6 188 c9 297 41 458 138 682 67 157 59 147 111 125 24 -11 107 -61
185 -112 78 -51 175 -111 217 -134 l76 -41 0 -108 c0 -137 -13 -267 -50 -488
-17 -97 -30 -193 -30 -215 0 -36 2 -38 27 -35 25 3 28 10 55 113 44 169 70
360 72 525 0 80 -2 161 -6 180 l-8 35 163 77 c134 64 282 116 294 105 1 -2 16
-55 32 -118 52 -203 64 -476 33 -748 l-17 -144 -40 -13 c-38 -11 -33 -12 67
-13 125 -1 163 10 303 90 118 67 190 123 234 182 45 60 47 56 58 -128 l8 -140
33 -3 c38 -4 37 -14 17 180 -23 227 -23 229 -3 307 25 102 23 188 -6 291 -14
47 -30 138 -36 203 -6 64 -23 168 -39 230 -16 61 -27 114 -25 116 3 3 33 -10
67 -27 34 -18 68 -32 75 -32 8 0 12 17 12 49 0 48 -1 50 -48 81 l-48 31 -18
126 c-10 69 -25 149 -33 177 -20 68 -83 192 -127 249 -22 28 -36 58 -36 75 0
44 -34 163 -96 332 -30 85 -56 164 -56 176 -1 35 51 102 96 124 33 15 49 18
73 11 51 -15 143 -67 221 -126 l72 -54 0 68 0 67 -81 49 c-77 47 -196 95 -229
94 -8 -1 -30 -5 -49 -9z m-930 -147 c41 -22 67 -45 111 -103 l56 -75 -19 -75
c-37 -140 -88 -470 -114 -740 -8 -85 -23 -243 -35 -350 -11 -107 -20 -226 -20
-264 0 -59 -2 -67 -17 -62 -23 9 -361 208 -457 269 -92 58 -196 107 -281 133
-33 10 -61 19 -63 20 -8 5 31 124 41 124 20 0 148 -50 214 -84 37 -19 104 -57
148 -85 79 -51 120 -62 143 -39 16 16 15 49 -2 74 -12 17 -12 30 4 98 70 291
5 483 -195 582 l-73 36 43 92 c42 91 192 325 243 379 56 60 126 96 188 97 17
0 55 -12 85 -27z m594 -2 c22 -10 65 -34 95 -53 53 -34 56 -39 84 -119 16 -46
47 -129 69 -184 44 -110 69 -185 61 -185 -2 0 -21 11 -42 23 -111 70 -244 83
-342 33 -148 -76 -245 -261 -269 -515 -9 -104 -1 -193 22 -240 14 -28 13 -31
-14 -57 -34 -33 -38 -69 -8 -85 18 -9 37 -3 123 40 55 28 128 58 161 67 118
32 449 29 504 -5 12 -8 79 -270 95 -370 l7 -44 -46 42 c-60 56 -169 106 -274
127 -102 20 -292 15 -386 -11 -66 -18 -208 -84 -299 -139 -32 -20 -62 -36 -66
-36 -8 0 -6 43 11 275 30 405 71 772 121 1070 l32 190 61 75 c73 91 124 120
205 120 31 0 72 -8 95 -19z m190 -589 c137 -70 238 -238 285 -470 11 -53 20
-102 20 -108 0 -7 -20 -6 -62 3 -35 8 -107 16 -160 20 -54 3 -98 7 -98 9 0 2
9 19 21 38 27 46 37 172 19 245 -46 195 -276 155 -297 -51 -7 -73 12 -158 47
-207 l29 -40 -52 -11 c-43 -9 -97 -29 -184 -67 -28 -12 -5 240 33 367 39 131
113 242 186 279 54 28 152 25 213 -7z m-1390 -57 c91 -24 164 -78 200 -149 28
-55 30 -68 30 -160 -1 -56 -7 -127 -13 -158 l-13 -56 -107 53 c-59 29 -125 58
-147 65 -58 18 -58 18 -20 57 53 55 85 177 65 251 -15 58 -59 92 -117 92 -58
0 -102 -27 -133 -82 -22 -38 -25 -55 -25 -145 0 -62 -4 -103 -10 -103 -5 0
-50 7 -100 15 -49 8 -109 15 -132 15 -25 0 -43 5 -43 11 0 25 67 135 112 184
49 54 138 108 204 124 49 13 173 5 249 -14z m-556 -731 c-115 -153 -180 -297
-204 -459 l-12 -80 -28 58 c-15 32 -33 82 -41 110 -17 64 -18 186 -2 239 14
46 77 122 122 145 42 23 144 51 183 52 l32 1 -50 -66z m256 41 c100 -24 166
-47 282 -99 l61 -28 -27 -46 c-51 -87 -122 -272 -146 -380 -36 -163 -48 -263
-48 -424 l-1 -148 -75 41 c-148 80 -315 219 -410 343 -36 47 -41 59 -41 107 0
118 35 258 93 374 59 120 176 285 200 285 7 0 57 -11 112 -25z m1691 -270 c93
-17 179 -49 170 -64 -3 -5 -2 -33 4 -62 5 -30 14 -173 21 -319 6 -146 15 -270
20 -276 11 -14 -43 -60 -149 -128 -73 -47 -200 -112 -207 -105 -2 2 3 51 11
109 20 145 20 438 0 568 -9 57 -29 143 -46 192 -16 48 -30 90 -30 94 0 11 116
6 206 -9z m338 -235 c38 -80 47 -188 22 -271 -16 -55 -83 -179 -97 -179 -4 0
-8 68 -8 152 -1 145 -14 344 -26 418 l-6 35 42 -45 c23 -25 56 -74 73 -110z"/>
</g>
</svg>
